{
  "accessors": [
    {
      "name": "Group_005_1_0_positions",
      "componentType": 5126,
      "count": 64,
      "min": [
        81.78130340576172,
        6.966100215911865,
        48.8213996887207
      ],
      "max": [
        112.84149932861328,
        26.069599151611328,
        57.66510009765625
      ],
      "type": "VEC3",
      "bufferView": 0,
      "byteOffset": 0
    },
    {
      "name": "Group_005_1_0_normals",
      "componentType": 5126,
      "count": 64,
      "min": [
        -0.9329119324684143,
        -0.36010462045669556,
        -0.9737136363983154
      ],
      "max": [
        0.9329119324684143,
        0.9319719672203064,
        0.9737136363983154
      ],
      "type": "VEC3",
      "bufferView": 1,
      "byteOffset": 0
    },
    {
      "name": "Group_005_1_0_texcoords",
      "componentType": 5126,
      "count": 64,
      "min": [
        0,
        1
      ],
      "max": [
        0,
        1
      ],
      "type": "VEC2",
      "bufferView": 2,
      "byteOffset": 0
    },
    {
      "name": "Group_005_1_0_indices",
      "componentType": 5123,
      "count": 162,
      "min": [
        0
      ],
      "max": [
        63
      ],
      "type": "SCALAR",
      "bufferView": 3,
      "byteOffset": 0
    },
    {
      "name": "Group_004_1_0_positions",
      "componentType": 5126,
      "count": 64,
      "min": [
        81.78130340576172,
        6.966100215911865,
        -57.59120178222656
      ],
      "max": [
        112.84149932861328,
        26.069599151611328,
        -48.747501373291016
      ],
      "type": "VEC3",
      "bufferView": 0,
      "byteOffset": 768
    },
    {
      "name": "Group_004_1_0_normals",
      "componentType": 5126,
      "count": 64,
      "min": [
        -0.9329119324684143,
        -0.36010462045669556,
        -0.9737136363983154
      ],
      "max": [
        0.9329119324684143,
        0.9319719672203064,
        0.9737136363983154
      ],
      "type": "VEC3",
      "bufferView": 1,
      "byteOffset": 768
    },
    {
      "name": "Group_004_1_0_texcoords",
      "componentType": 5126,
      "count": 64,
      "min": [
        0,
        1
      ],
      "max": [
        0,
        1
      ],
      "type": "VEC2",
      "bufferView": 2,
      "byteOffset": 512
    },
    {
      "name": "Group_004_1_0_indices",
      "componentType": 5123,
      "count": 162,
      "min": [
        0
      ],
      "max": [
        63
      ],
      "type": "SCALAR",
      "bufferView": 3,
      "byteOffset": 324
    },
    {
      "name": "Group_002_1_0_positions",
      "componentType": 5126,
      "count": 171,
      "min": [
        62.277801513671875,
        2.093400001525879,
        -58.04819869995117
      ],
      "max": [
        117.15969848632812,
        29.156600952148438,
        58.12200164794922
      ],
      "type": "VEC3",
      "bufferView": 0,
      "byteOffset": 1536
    },
    {
      "name": "Group_002_1_0_normals",
      "componentType": 5126,
      "count": 171,
      "min": [
        0,
        0,
        -1
      ],
      "max": [
        1,
        0.9222580194473267,
        1
      ],
      "type": "VEC3",
      "bufferView": 1,
      "byteOffset": 1536
    },
    {
      "name": "Group_002_1_0_texcoords",
      "componentType": 5126,
      "count": 171,
      "min": [
        0,
        1
      ],
      "max": [
        0,
        1
      ],
      "type": "VEC2",
      "bufferView": 2,
      "byteOffset": 1024
    },
    {
      "name": "Group_002_1_0_indices",
      "componentType": 5123,
      "count": 450,
      "min": [
        0
      ],
      "max": [
        170
      ],
      "type": "SCALAR",
      "bufferView": 3,
      "byteOffset": 648
    },
    {
      "name": "Group_002_1_1_positions",
      "componentType": 5126,
      "count": 8,
      "min": [
        81.78130340576172,
        6.966100215911865,
        -56.102699279785156
      ],
      "max": [
        110.23400115966797,
        19.313499450683594,
        56.17660140991211
      ],
      "type": "VEC3",
      "bufferView": 0,
      "byteOffset": 3588
    },
    {
      "name": "Group_002_1_1_normals",
      "componentType": 5126,
      "count": 8,
      "min": [
        -0.35549136996269226,
        -0.9211776256561279,
        -0.1582961529493332
      ],
      "max": [
        -0.35549136996269226,
        -0.9211776256561279,
        0.1582961529493332
      ],
      "type": "VEC3",
      "bufferView": 1,
      "byteOffset": 3588
    },
    {
      "name": "Group_002_1_1_texcoords",
      "componentType": 5126,
      "count": 8,
      "min": [
        0,
        1
      ],
      "max": [
        0,
        1
      ],
      "type": "VEC2",
      "bufferView": 2,
      "byteOffset": 2392
    },
    {
      "name": "Group_002_1_1_indices",
      "componentType": 5123,
      "count": 12,
      "min": [
        0
      ],
      "max": [
        7
      ],
      "type": "SCALAR",
      "bufferView": 3,
      "byteOffset": 1548
    },
    {
      "name": "Group_001_1_0_positions",
      "componentType": 5126,
      "count": 746,
      "min": [
        -110.91310119628906,
        122.36219787597656,
        -108.43840026855469
      ],
      "max": [
        63.84370040893555,
        163.76609802246094,
        108.43840026855469
      ],
      "type": "VEC3",
      "bufferView": 0,
      "byteOffset": 3684
    },
    {
      "name": "Group_001_1_0_normals",
      "componentType": 5126,
      "count": 746,
      "min": [
        -1,
        -1,
        -1
      ],
      "max": [
        1,
        1,
        1
      ],
      "type": "VEC3",
      "bufferView": 1,
      "byteOffset": 3684
    },
    {
      "name": "Group_001_1_0_texcoords",
      "componentType": 5126,
      "count": 746,
      "min": [
        0,
        1
      ],
      "max": [
        0,
        1
      ],
      "type": "VEC2",
      "bufferView": 2,
      "byteOffset": 2456
    },
    {
      "name": "Group_001_1_0_indices",
      "componentType": 5123,
      "count": 3744,
      "min": [
        0
      ],
      "max": [
        745
      ],
      "type": "SCALAR",
      "bufferView": 3,
      "byteOffset": 1572
    },
    {
      "name": "Layer0_001_1_0_positions",
      "componentType": 5126,
      "count": 479,
      "min": [
        -117.15969848632812,
        0,
        -118.90370178222656
      ],
      "max": [
        117.15969848632812,
        35,
        118.90370178222656
      ],
      "type": "VEC3",
      "bufferView": 0,
      "byteOffset": 12636
    },
    {
      "name": "Layer0_001_1_0_normals",
      "componentType": 5126,
      "count": 479,
      "min": [
        -1,
        -1,
        -1
      ],
      "max": [
        1,
        1,
        1
      ],
      "type": "VEC3",
      "bufferView": 1,
      "byteOffset": 12636
    },
    {
      "name": "Layer0_001_1_0_texcoords",
      "componentType": 5126,
      "count": 479,
      "min": [
        0,
        1
      ],
      "max": [
        0,
        1
      ],
      "type": "VEC2",
      "bufferView": 2,
      "byteOffset": 8424
    },
    {
      "name": "Layer0_001_1_0_indices",
      "componentType": 5123,
      "count": 1653,
      "min": [
        0
      ],
      "max": [
        478
      ],
      "type": "SCALAR",
      "bufferView": 3,
      "byteOffset": 9060
    },
    {
      "name": "Layer0_001_1_1_positions",
      "componentType": 5126,
      "count": 247,
      "min": [
        -101.53469848632812,
        31.25,
        -99.05999755859375
      ],
      "max": [
        54.465301513671875,
        34.5,
        99.05999755859375
      ],
      "type": "VEC3",
      "bufferView": 0,
      "byteOffset": 18384
    },
    {
      "name": "Layer0_001_1_1_normals",
      "componentType": 5126,
      "count": 247,
      "min": [
        -0.3577122092247009,
        0,
        -1
      ],
      "max": [
        0.3577122092247009,
        1,
        1
      ],
      "type": "VEC3",
      "bufferView": 1,
      "byteOffset": 18384
    },
    {
      "name": "Layer0_001_1_1_texcoords",
      "componentType": 5126,
      "count": 247,
      "min": [
        0,
        1
      ],
      "max": [
        0,
        1
      ],
      "type": "VEC2",
      "bufferView": 2,
      "byteOffset": 12256
    },
    {
      "name": "Layer0_001_1_1_indices",
      "componentType": 5123,
      "count": 837,
      "min": [
        0
      ],
      "max": [
        246
      ],
      "type": "SCALAR",
      "bufferView": 3,
      "byteOffset": 12368
    },
    {
      "name": "Layer0_001_1_2_positions",
      "componentType": 5126,
      "count": 6082,
      "min": [
        -113.25800323486328,
        17.037399291992188,
        -112.67250061035156
      ],
      "max": [
        67.53009796142578,
        162.40870666503906,
        112.7780990600586
      ],
      "type": "VEC3",
      "bufferView": 0,
      "byteOffset": 21348
    },
    {
      "name": "Layer0_001_1_2_normals",
      "componentType": 5126,
      "count": 6082,
      "min": [
        -0.999971866607666,
        -1,
        -0.9999710917472839
      ],
      "max": [
        0.999971866607666,
        1,
        0.9999710917472839
      ],
      "type": "VEC3",
      "bufferView": 1,
      "byteOffset": 21348
    },
    {
      "name": "Layer0_001_1_2_texcoords",
      "componentType": 5126,
      "count": 6082,
      "min": [
        0,
        1
      ],
      "max": [
        0,
        1
      ],
      "type": "VEC2",
      "bufferView": 2,
      "byteOffset": 14232
    },
    {
      "name": "Layer0_001_1_2_indices",
      "componentType": 5123,
      "count": 30945,
      "min": [
        0
      ],
      "max": [
        6081
      ],
      "type": "SCALAR",
      "bufferView": 3,
      "byteOffset": 14044
    },
    {
      "name": "Layer0_001_1_3_positions",
      "componentType": 5126,
      "count": 281,
      "min": [
        -101.03739929199219,
        162.40870666503906,
        -100.1947021484375
      ],
      "max": [
        55.309600830078125,
        174.87240600585938,
        100.30030059814453
      ],
      "type": "VEC3",
      "bufferView": 0,
      "byteOffset": 94332
    },
    {
      "name": "Layer0_001_1_3_normals",
      "componentType": 5126,
      "count": 281,
      "min": [
        -0.9505072236061096,
        -1,
        -0.948593258857727
      ],
      "max": [
        0.9505072236061096,
        -0.3097963333129883,
        0.948593258857727
      ],
      "type": "VEC3",
      "bufferView": 1,
      "byteOffset": 94332
    },
    {
      "name": "Layer0_001_1_3_texcoords",
      "componentType": 5126,
      "count": 281,
      "min": [
        0,
        1
      ],
      "max": [
        0,
        1
      ],
      "type": "VEC2",
      "bufferView": 2,
      "byteOffset": 62888
    },
    {
      "name": "Layer0_001_1_3_indices",
      "componentType": 5123,
      "count": 480,
      "min": [
        0
      ],
      "max": [
        280
      ],
      "type": "SCALAR",
      "bufferView": 3,
      "byteOffset": 75936
    },
    {
      "name": "Layer0_001_1_4_positions",
      "componentType": 5126,
      "count": 173,
      "min": [
        -101.53469848632812,
        31.25,
        -99.05999755859375
      ],
      "max": [
        54.465301513671875,
        146.81100463867188,
        99.05999755859375
      ],
      "type": "VEC3",
      "bufferView": 0,
      "byteOffset": 97704
    },
    {
      "name": "Layer0_001_1_4_normals",
      "componentType": 5126,
      "count": 173,
      "min": [
        -1,
        0,
        -1
      ],
      "max": [
        1,
        0,
        1
      ],
      "type": "VEC3",
      "bufferView": 1,
      "byteOffset": 97704
    },
    {
      "name": "Layer0_001_1_4_texcoords",
      "componentType": 5126,
      "count": 173,
      "min": [
        -40.55699920654297,
        -28.362199783325195
      ],
      "max": [
        40.64950180053711,
        -5.25
      ],
      "type": "VEC2",
      "bufferView": 2,
      "byteOffset": 65136
    },
    {
      "name": "Layer0_001_1_4_indices",
      "componentType": 5123,
      "count": 492,
      "min": [
        0
      ],
      "max": [
        172
      ],
      "type": "SCALAR",
      "bufferView": 3,
      "byteOffset": 76896
    }
  ],
  "asset": {
    "generator": "obj2gltf",
    "version": "2.0"
  },
  "buffers": [
    {
      "name": "3d-model",
      "byteLength": 343960,
      "uri": "data:application/octet-stream;base64,"
    }
  ],
  "bufferViews": [
    {
      "name": "bufferView_0",
      "buffer": 0,
      "byteLength": 99780,
      "byteOffset": 0,
      "byteStride": 12,
      "target": 34962
    },
    {
      "name": "bufferView_1",
      "buffer": 0,
      "byteLength": 99780,
      "byteOffset": 99780,
      "byteStride": 12,
      "target": 34962
    },
    {
      "name": "bufferView_2",
      "buffer": 0,
      "byteLength": 66520,
      "byteOffset": 199560,
      "byteStride": 8,
      "target": 34962
    },
    {
      "name": "bufferView_3",
      "buffer": 0,
      "byteLength": 77880,
      "byteOffset": 266080,
      "target": 34963
    }
  ],
  "materials": [
    {
      "name": "Material8",
      "pbrMetallicRoughness": {
        "baseColorFactor": [
          0.7922,
          0.5216,
          0.0431,
          1
        ],
        "metallicFactor": 0,
        "roughnessFactor": 0.99
      },
      "emissiveFactor": [
        0,
        0,
        0
      ],
      "alphaMode": "OPAQUE",
      "doubleSided": false
    },
    {
      "name": "Material1",
      "pbrMetallicRoughness": {
        "baseColorFactor": [
          0.8471,
          0.0667,
          0.0941,
          1
        ],
        "metallicFactor": 0,
        "roughnessFactor": 0.99
      },
      "emissiveFactor": [
        0,
        0,
        0
      ],
      "alphaMode": "OPAQUE",
      "doubleSided": false
    },
    {
      "name": "skp_front_default",
      "pbrMetallicRoughness": {
        "baseColorFactor": [
          1,
          1,
          1,
          1
        ],
        "metallicFactor": 0,
        "roughnessFactor": 0.99
      },
      "emissiveFactor": [
        0,
        0,
        0
      ],
      "alphaMode": "OPAQUE",
      "doubleSided": false
    },
    {
      "name": "Material5",
      "pbrMetallicRoughness": {
        "baseColorFactor": [
          0.8784,
          0.6745,
          0.0275,
          1
        ],
        "metallicFactor": 0,
        "roughnessFactor": 0.99
      },
      "emissiveFactor": [
        0,
        0,
        0
      ],
      "alphaMode": "OPAQUE",
      "doubleSided": false
    },
    {
      "name": "Material10",
      "pbrMetallicRoughness": {
        "baseColorFactor": [
          0,
          1,
          0.0039,
          1
        ],
        "metallicFactor": 0,
        "roughnessFactor": 0.99
      },
      "emissiveFactor": [
        0,
        0,
        0
      ],
      "alphaMode": "OPAQUE",
      "doubleSided": false
    },
    {
      "name": "Material3",
      "pbrMetallicRoughness": {
        "baseColorFactor": [
          1,
          1,
          1,
          1
        ],
        "metallicFactor": 0,
        "roughnessFactor": 0.99
      },
      "emissiveFactor": [
        0,
        0,
        0
      ],
      "alphaMode": "OPAQUE",
      "doubleSided": false
    }
  ],
  "meshes": [
    {
      "name": "Group_005_1",
      "primitives": [
        {
          "attributes": {
            "POSITION": 0,
            "NORMAL": 1,
            "TEXCOORD_0": 2
          },
          "indices": 3,
          "material": 0,
          "mode": 4
        }
      ]
    },
    {
      "name": "Group_004_1",
      "primitives": [
        {
          "attributes": {
            "POSITION": 4,
            "NORMAL": 5,
            "TEXCOORD_0": 6
          },
          "indices": 7,
          "material": 0,
          "mode": 4
        }
      ]
    },
    {
      "name": "Group_002_1",
      "primitives": [
        {
          "attributes": {
            "POSITION": 8,
            "NORMAL": 9,
            "TEXCOORD_0": 10
          },
          "indices": 11,
          "material": 1,
          "mode": 4
        },
        {
          "attributes": {
            "POSITION": 12,
            "NORMAL": 13,
            "TEXCOORD_0": 14
          },
          "indices": 15,
          "material": 2,
          "mode": 4
        }
      ]
    },
    {
      "name": "Group_001_1",
      "primitives": [
        {
          "attributes": {
            "POSITION": 16,
            "NORMAL": 17,
            "TEXCOORD_0": 18
          },
          "indices": 19,
          "material": 1,
          "mode": 4
        }
      ]
    },
    {
      "name": "Layer0_001_1",
      "primitives": [
        {
          "attributes": {
            "POSITION": 20,
            "NORMAL": 21,
            "TEXCOORD_0": 22
          },
          "indices": 23,
          "material": 1,
          "mode": 4
        },
        {
          "attributes": {
            "POSITION": 24,
            "NORMAL": 25,
            "TEXCOORD_0": 26
          },
          "indices": 27,
          "material": 3,
          "mode": 4
        },
        {
          "attributes": {
            "POSITION": 28,
            "NORMAL": 29,
            "TEXCOORD_0": 30
          },
          "indices": 31,
          "material": 2,
          "mode": 4
        },
        {
          "attributes": {
            "POSITION": 32,
            "NORMAL": 33,
            "TEXCOORD_0": 34
          },
          "indices": 35,
          "material": 4,
          "mode": 4
        },
        {
          "attributes": {
            "POSITION": 36,
            "NORMAL": 37,
            "TEXCOORD_0": 38
          },
          "indices": 39,
          "material": 5,
          "mode": 4
        }
      ]
    }
  ],
  "nodes": [
    {
      "name": "Group_005",
      "mesh": 0
    },
    {
      "name": "Group_004",
      "mesh": 1
    },
    {
      "name": "Group_002",
      "mesh": 2
    },
    {
      "name": "Group_001",
      "mesh": 3
    },
    {
      "name": "Layer0_001",
      "mesh": 4
    }
  ],
  "scene": 0,
  "scenes": [
    {
      "nodes": [
        0,
        1,
        2,
        3,
        4
      ]
    }
  ]
}
